<mxfile host="65bd71144e">
    <diagram id="yIIqEk7P_r5QBRFyrBZL" name="Страница — 1">
        <mxGraphModel dx="830" dy="779" grid="1" gridSize="10" guides="1" tooltips="1" connect="1" arrows="1" fold="1" page="1" pageScale="1" pageWidth="827" pageHeight="1169" math="0" shadow="0">
            <root>
                <mxCell id="0"/>
                <mxCell id="1" parent="0"/>
                <mxCell id="2" value="" style="html=1;outlineConnect=0;whiteSpace=wrap;fillColor=#F5DEAA;shape=mxgraph.archimate3.capability;" vertex="1" parent="1">
                    <mxGeometry x="980" y="20" width="40" height="40" as="geometry"/>
                </mxCell>
                <mxCell id="3" value="Capability" style="html=1;outlineConnect=0;whiteSpace=wrap;fillColor=#F5DEAA;shape=mxgraph.archimate3.application;appType=capability;archiType=rounded;" vertex="1" parent="1">
                    <mxGeometry x="414" y="102.5" width="150" height="75" as="geometry"/>
                </mxCell>
                <mxCell id="4" value="Capability" style="html=1;outlineConnect=0;whiteSpace=wrap;fillColor=#F5DEAA;shape=mxgraph.archimate3.application;appType=capability;archiType=rounded;" vertex="1" parent="1">
                    <mxGeometry x="414" y="250" width="150" height="75" as="geometry"/>
                </mxCell>
                <mxCell id="7" value="" style="verticalLabelPosition=bottom;shadow=0;dashed=0;align=center;html=1;verticalAlign=top;strokeWidth=2;shape=mxgraph.mockup.forms.horSlider;strokeColor=#E6E6E6;sliderStyle=basic;sliderPos=71.429;handleStyle=circle;fillColor2=#36BCD1;gradientColor=none;labelBorderColor=none;labelBackgroundColor=none;fillColor=#36BCD1;perimeterSpacing=0;fillOpacity=100;" vertex="1" parent="1">
                    <mxGeometry x="426" y="177.5" width="126" height="30" as="geometry"/>
                </mxCell>
            </root>
        </mxGraphModel>
    </diagram>
</mxfile>